<mxfile host="app.diagrams.net" modified="2023-10-09T01:37:29.576Z" agent="Mozilla/5.0 (Windows NT 10.0; Win64; x64; rv:109.0) Gecko/20100101 Firefox/117.0" version="22.0.4" etag="OQoYqpAD1nv1hCgd1gGh" type="github">
  <diagram name="Page-1" id="hYFHRVp7-Fe97WVQuG1j">
    <mxGraphModel>
      <root>
        <mxCell id="0" />
        <mxCell id="1" parent="0" />
      </root>
    </mxGraphModel>
  </diagram>
</mxfile>
